# xmcd
#
# Track frame offsets:
# 150
# 15175
# 30327
# 41865
# 55864
# 66472
# 81577
# 92825
# 108375
# 125590
# 139370
# 153005
# 169672
# 181084
# 197355
# 212560
#
# Disc length: 3032 seconds
#
# Revision: 3
# Processed by: cddbd v1.5.2PL0 Copyright (c) Steve Scherf et al.
# Submitted via: Axialis_AX_CDPlayer 2.6
#
DISCID=d20bd610
DTITLE=Ricky Van Shelton - 16 Biggest Hits
DYEAR=1999
DGENRE=Country
TTITLE0=Somebody Lied
TTITLE1=Life Turned Her That Way
TTITLE2=Don't We All Have The Right
TTITLE3=I'll Leave This World Loving You
TTITLE4=From A Jack To A King
TTITLE5=Living Proof
TTITLE6=I've Cried My Last Tear For You
TTITLE7=I Am A Simple Man
TTITLE8=Keep It Between The Lines
TTITLE9=Statue Of A Fool
TTITLE10=I Meant Every Word He Said
TTITLE11=Backroads
TTITLE12=(I Got) A Hole In My Pocket
TTITLE13=Life's Little Ups And Downs
TTITLE14=Crime of Passion
TTITLE15=Wild Man
EXTD=
EXTT0=
EXTT1=
EXTT2=
EXTT3=
EXTT4=
EXTT5=
EXTT6=
EXTT7=
EXTT8=
EXTT9=
EXTT10=
EXTT11=
EXTT12=
EXTT13=
EXTT14=
EXTT15=
PLAYORDER=
